<?xml version="1.0" encoding="UTF-8"?>
<svg width="100%" height="100%" viewBox="0 0 800 400" xmlns="http://www.w3.org/2000/svg">
  <!-- Header Bar -->
  <rect x="50" y="20" width="700" height="40" rx="8" fill="#2A2F3E" />
  <circle cx="80" cy="40" r="8" fill="#3A3F4E" />
  <rect x="100" y="35" width="200" height="10" rx="2" fill="#3A3F4E" />
  
  <!-- Content Grid -->
  <rect x="50" y="80" width="220" height="280" rx="8" fill="#2A2F3E" />
  <rect x="290" y="80" width="220" height="280" rx="8" fill="#2A2F3E" />
  <rect x="530" y="80" width="220" height="280" rx="8" fill="#2A2F3E" />
  
  <!-- Post Content Placeholders -->
  <rect x="70" y="100" width="180" height="120" rx="4" fill="#3A3F4E" />
  <rect x="70" y="240" width="180" height="10" rx="2" fill="#3A3F4E" />
  <rect x="70" y="260" width="140" height="10" rx="2" fill="#3A3F4E" />
  
  <rect x="310" y="100" width="180" height="120" rx="4" fill="#3A3F4E" />
  <rect x="310" y="240" width="180" height="10" rx="2" fill="#3A3F4E" />
  <rect x="310" y="260" width="140" height="10" rx="2" fill="#3A3F4E" />
  
  <rect x="550" y="100" width="180" height="120" rx="4" fill="#3A3F4E" />
  <rect x="550" y="240" width="180" height="10" rx="2" fill="#3A3F4E" />
  <rect x="550" y="260" width="140" height="10" rx="2" fill="#3A3F4E" />
</svg> 